<svg id="Layer_1" data-name="Layer 1" xmlns="http://www.w3.org/2000/svg" xmlns:xlink="http://www.w3.org/1999/xlink" viewBox="0 0 595.28 841.89"><defs><style>.cls-1{opacity:0.45;fill:url(#linear-gradient);}.cls-2,.cls-3,.cls-4,.cls-5,.cls-6,.cls-7,.cls-8{stroke:#231f20;stroke-miterlimit:10;stroke-width:1.02px;}.cls-2{fill:url(#linear-gradient-2);}.cls-3{fill:url(#linear-gradient-3);}.cls-4{fill:url(#linear-gradient-4);}.cls-5{fill:url(#linear-gradient-5);}.cls-6{fill:url(#linear-gradient-6);}.cls-7{fill:url(#linear-gradient-7);}.cls-8{fill:url(#linear-gradient-8);}</style><linearGradient id="linear-gradient" x1="61.72" y1="433.68" x2="523.34" y2="433.68" gradientUnits="userSpaceOnUse"><stop offset="0.16" stop-color="#231f20"/><stop offset="0.22" stop-color="#3a3739"/><stop offset="0.36" stop-color="#757679"/><stop offset="0.39" stop-color="#808285"/><stop offset="0.54" stop-color="#424041"/><stop offset="0.61" stop-color="#231f20"/><stop offset="0.98" stop-color="#939598"/></linearGradient><linearGradient id="linear-gradient-2" x1="184.59" y1="323.74" x2="186.12" y2="175.14" gradientUnits="userSpaceOnUse"><stop offset="0.19" stop-color="#3ba55b"/><stop offset="0.64" stop-color="#b5ac48"/></linearGradient><linearGradient id="linear-gradient-3" x1="116.29" y1="400.59" x2="115.52" y2="242.81" gradientUnits="userSpaceOnUse"><stop offset="0.19" stop-color="#3ba55b"/><stop offset="0.83" stop-color="#b5ac48"/></linearGradient><linearGradient id="linear-gradient-4" x1="172.37" y1="398.81" x2="173.9" y2="229.54" xlink:href="#linear-gradient-3"/><linearGradient id="linear-gradient-5" x1="313.21" y1="441.44" x2="317.04" y2="240.76" xlink:href="#linear-gradient-3"/><linearGradient id="linear-gradient-6" x1="410.97" y1="428.27" x2="349.69" y2="324.1" xlink:href="#linear-gradient-3"/><linearGradient id="linear-gradient-7" x1="414.13" y1="276.69" x2="430.99" y2="190.91" gradientUnits="userSpaceOnUse"><stop offset="0.19" stop-color="#3ba55b"/><stop offset="0.61" stop-color="#b5ac48"/></linearGradient><linearGradient id="linear-gradient-8" x1="400.41" y1="453.62" x2="403.47" y2="236.08" xlink:href="#linear-gradient-3"/></defs><path class="cls-1" d="M522.43,414.41l-3.82-11.26c-2.46-7.28-12.31-11.7-21.87-9.82L274.78,437,96.45,392.89c-8.56-6.63-23.37,4.42-25.69,11.26l-5.29,11.43c-2.31,6.84-7.73,15.8,1.24,17.57l204.88,43c4.12.81-1.49-.24,2.43,0,1.33,0,.15.33,1.49.07L513,441.61C522.56,439.73,524.89,421.69,522.43,414.41Z"/><path class="cls-2" d="M84.32,215.18s141.64-21.91,187.43,41c16,22,19.72,51.1,6.18,74.81-11.09,19.43-42,49.95-147.22,2.74L246.06,339l-1.53-63.8-59.26-41.28Z"/><polygon class="cls-3" points="149.67 240.95 149.67 415.18 130.12 430.64 81.99 371.88 81.99 227.55 149.67 240.95"/><path id="P" class="cls-4" d="M82.32,215.18V430.64h46.39V333.73s109.65,53.61,133.36-3.09C262.07,330.64,301.91,202.8,82.32,215.18ZM237,306.93c-1,60.74-109.28,4.12-109.28,4.12V241C246.24,243,237,306.93,237,306.93Z"/><polygon class="cls-5" points="310.6 233.89 286.77 247.64 286.77 456.75 310.43 467.47 342.06 389.34 347.06 247.6 310.6 233.89"/><polygon class="cls-6" points="353.46 369.06 411.93 424.55 436.19 430.64 436.19 395.11 375.71 338.98 349.7 335.04 327.9 363.11 353.46 369.06"/><path class="cls-7" d="M353.46,236s79.81-5.16,94.67,11a8,8,0,0,1,1.78,7.19c-2.38,10.56-16.37,48.28-96.45,69.93L375.71,339l60.48-29.65,49.84-49V233.89l-54.59-15.72Z"/><path class="cls-8" d="M496,240c-6.92-55.15-115.87-18.34-185.38-6.09V467.47h42.89V349l82.73,81.61,49.84.78-89.67-92.6S502.87,295.13,496,240ZM353.46,324.09V236c42.38-6.35,116.22-24,122.45,13.73S353.46,324.09,353.46,324.09Z"/></svg>